<svg width="18px" height="31px" viewBox="0 0 18 31" version="1.1" xmlns="http://www.w3.org/2000/svg"
     xmlns:xlink="http://www.w3.org/1999/xlink">
    <desc>Created with Sketch.</desc>
    <defs></defs>
    <g id="Welcome" stroke="none" stroke-width="1" fill="none" fill-rule="evenodd">
        <g id="Home" transform="translate(-910.000000, -151.000000)" fill="#000000">
            <g id="Page-1" transform="translate(910.000000, 151.000000)">
                <g id="Group">
                    <path d="M0,17.6796591 L8.69492219,30.1162809 L8.93081358,30.0410152 L9.16945337,30.1169134 L17.9371689,17.6851933 L17.531976,17.2404776 L8.9150299,22.338698 L0.407470186,17.236999 L0,17.6796591 Z M9.30828692,22.9650158 L16.1777207,18.9007495 L9.34087512,28.5947604 L9.30828692,22.9650158 Z M1.75944825,18.9096833 L8.51643313,22.9616953 L8.51643313,28.5744418 L1.75944825,18.9096833 Z"
                          id="Fill-1"></path>
                    <path d="M9.14511039,0.789899554 L8.89594814,0.859868152 L8.72381967,0.811799329 L8.6785103,0.887539349 L8.71620267,0.910308791 L8.57611271,0.94960189 L8.57626976,1.05831016 L0.183357657,15.0791475 L0.179195792,15.0809659 L0.178881689,15.0865002 L0.134200529,15.1611333 L0.173698988,15.1850096 L0.168830391,15.278143 L0.0920321945,15.2316554 L0.157601207,15.4926343 L0.150455362,15.6277488 L0.198670181,15.6563687 L0.198984284,15.6574756 L0.740654999,15.9777499 L8.74949759,20.7277085 L8.79912588,20.6427975 L8.85495769,20.6745798 L8.8047012,20.7604396 L8.85998334,20.7932497 L8.96088895,20.7349821 L9.0619516,20.7926963 L9.11699816,20.7598071 L9.06634905,20.6740264 L9.12202381,20.6419278 L9.17212325,20.7266807 L16.0790923,16.5873859 L17.6716733,15.635813 L17.6725371,15.6324924 L17.7152551,15.6068768 L17.7087375,15.4878907 L17.7779187,15.2114159 L17.7767408,15.2093603 L17.6960949,15.2581407 L17.6913833,15.1726762 L17.7378706,15.1445306 L9.29289587,1.03680569 L9.29273882,0.970552939 L9.13780749,0.927385872 L9.20345503,0.887539349 L9.14511039,0.789899554 Z M9.32564112,11.2333255 L9.31378373,2.50646249 L16.5057228,14.5208218 L9.32564112,11.2333255 Z M8.56009345,2.52006091 L8.57611271,11.2383063 L1.36619123,14.5377408 L8.56009345,2.52006091 Z M9.32674048,12.0473331 L16.6339554,15.393018 L15.7024828,15.9513437 L9.33718441,19.7550264 L9.32674048,12.0473331 Z M1.23497468,15.4112019 L8.55930819,12.0594293 L8.57650534,17.4077974 L8.57650534,19.7528127 L1.23497468,15.4112019 Z"
                          id="Fill-2"></path>
                </g>
            </g>
        </g>
    </g>
</svg>