<svg
        xmlns="http://www.w3.org/2000/svg"
        xmlns:xlink="http://www.w3.org/1999/xlink"
        width="794px" height="413px">
    <path fill-rule="evenodd" stroke="rgb(0, 0, 0)" stroke-width="18px" stroke-linecap="butt"
          stroke-linejoin="miter" fill="none"
          d="M367.664,9.000 C432.298,9.000 484.695,61.378 484.695,125.989 C484.695,190.600 432.298,242.978 367.664,242.978 C303.030,242.978 250.634,190.600 250.634,125.989 C250.634,61.378 303.030,9.000 367.664,9.000 Z"/>
    <path fill-rule="evenodd" fill="rgb(0, 0, 0)"
          d="M359.976,49.257 C379.179,54.471 390.575,74.475 385.430,93.936 C380.284,113.396 360.545,124.945 341.342,119.731 C322.139,114.516 310.742,94.513 315.888,75.052 C321.033,55.591 340.772,44.042 359.976,49.257 Z"/>
    <path fill-rule="evenodd" fill="rgb(0, 0, 0)"
          d="M376.952,141.529 C393.605,145.996 403.488,163.131 399.026,179.800 C394.564,196.470 377.446,206.363 360.793,201.896 C344.140,197.430 334.258,180.295 338.720,163.625 C343.182,146.955 360.299,137.062 376.952,141.529 Z"/>
    <path fill-rule="evenodd" fill="rgb(0, 0, 0)"
          d="M430.047,160.449 C436.985,162.378 441.103,169.776 439.244,176.974 C437.385,184.172 430.253,188.443 423.315,186.515 C416.377,184.586 412.260,177.187 414.119,169.990 C415.978,162.792 423.109,158.520 430.047,160.449 Z"/>
    <path fill-rule="evenodd" fill="rgb(0, 0, 0)"
          d="M404.486,61.252 C408.222,62.324 410.439,66.434 409.438,70.433 C408.437,74.432 404.597,76.805 400.861,75.733 C397.125,74.662 394.908,70.552 395.909,66.553 C396.911,62.554 400.751,60.181 404.486,61.252 Z"/>
    <path fill-rule="evenodd" fill="rgb(0, 0, 0)"
          d="M429.882,89.961 C445.084,94.037 454.106,109.672 450.033,124.882 C445.959,140.093 430.333,149.120 415.130,145.044 C399.927,140.968 390.905,125.334 394.979,110.123 C399.052,94.912 414.679,85.886 429.882,89.961 Z"/>
    <path fill-rule="evenodd" fill="rgb(0, 0, 0)"
          d="M315.974,123.753 C327.982,126.969 335.109,139.306 331.891,151.308 C328.673,163.311 316.330,170.433 304.322,167.217 C292.314,164.001 285.188,151.664 288.405,139.662 C291.623,127.660 303.966,120.537 315.974,123.753 Z"/>
    <text kerning="auto" font-family="Filson Soft" fill="rgb(0, 0, 0)"
          transform="matrix( 8.81903386833287, 0, 0, 8.81591624094959,-0.99647217114421, 404.901806136204)"
          font-size="16.031px">E&#45;LOTHERY
    </text>
</svg>