<svg
        xmlns="http://www.w3.org/2000/svg"
        xmlns:xlink="http://www.w3.org/1999/xlink"
        width="262px" height="261px">
    <path fill-rule="evenodd" stroke="rgb(0, 0, 0)" stroke-width="18px" stroke-linecap="butt"
          stroke-linejoin="miter" fill="none"
          d="M126.664,9.000 C191.298,9.000 243.695,61.378 243.695,125.989 C243.695,190.600 191.298,242.978 126.664,242.978 C62.030,242.978 9.634,190.600 9.634,125.989 C9.634,61.378 62.030,9.000 126.664,9.000 Z"/>
    <path fill-rule="evenodd" fill="rgb(0, 0, 0)"
          d="M118.976,49.257 C138.179,54.471 149.575,74.475 144.430,93.936 C139.284,113.396 119.545,124.945 100.342,119.731 C81.139,114.516 69.742,94.513 74.888,75.052 C80.033,55.591 99.772,44.042 118.976,49.257 Z"/>
    <path fill-rule="evenodd" fill="rgb(0, 0, 0)"
          d="M135.952,141.529 C152.605,145.996 162.488,163.131 158.026,179.800 C153.564,196.470 136.446,206.363 119.793,201.896 C103.140,197.430 93.258,180.295 97.720,163.625 C102.182,146.955 119.299,137.062 135.952,141.529 Z"/>
    <path fill-rule="evenodd" fill="rgb(0, 0, 0)"
          d="M189.047,160.449 C195.985,162.378 200.103,169.776 198.244,176.974 C196.385,184.172 189.253,188.443 182.315,186.515 C175.377,184.586 171.260,177.187 173.119,169.990 C174.978,162.792 182.109,158.520 189.047,160.449 Z"/>
    <path fill-rule="evenodd" fill="rgb(0, 0, 0)"
          d="M163.486,61.252 C167.222,62.324 169.439,66.434 168.438,70.433 C167.437,74.432 163.597,76.805 159.861,75.733 C156.125,74.662 153.908,70.552 154.909,66.553 C155.911,62.554 159.751,60.181 163.486,61.252 Z"/>
    <path fill-rule="evenodd" fill="rgb(0, 0, 0)"
          d="M188.882,89.961 C204.084,94.037 213.106,109.672 209.033,124.882 C204.959,140.093 189.333,149.120 174.130,145.044 C158.927,140.968 149.905,125.334 153.979,110.123 C158.052,94.912 173.679,85.886 188.882,89.961 Z"/>
    <path fill-rule="evenodd" fill="rgb(0, 0, 0)"
          d="M74.974,123.753 C86.982,126.969 94.109,139.306 90.891,151.308 C87.673,163.311 75.330,170.433 63.322,167.217 C51.314,164.001 44.188,151.664 47.405,139.662 C50.623,127.660 62.966,120.537 74.974,123.753 Z"/>
</svg>