<?xml version="1.0" encoding="utf-8"?>
<!-- Generator: Adobe Illustrator 21.0.2, SVG Export Plug-In . SVG Version: 6.00 Build 0)  -->
<svg version="1.1" id="Layer_1" xmlns="http://www.w3.org/2000/svg" xmlns:xlink="http://www.w3.org/1999/xlink" x="0px" y="0px"
	 viewBox="0 0 1100 1100" style="enable-background:new 0 0 1100 1100;" xml:space="preserve">
<g>
	<path d="M838.8,579.4L548.2,750.1L261.3,579.3l-13.7,14.8l293.2,416.5l8-2.5l8,2.5l295.7-416.4L838.8,579.4z M534.8,959
		L306.9,635.3L534.8,771V959z M562.6,959.7l-1.1-188.6L793.1,635L562.6,959.7z"/>
	<path d="M250.7,536.7l2.2,8.7l-0.2,4.5l1.6,1l0,0l18.3,10.7l270.1,159.1l1.7-2.8l1.9,1.1l-1.7,2.9l1.9,1.1l3.4-1.9l3.4,1.9l1.9-1.1
		l-1.7-2.9l1.9-1.1l1.7,2.8l232.9-138.6l53.7-31.9l0-0.1l1.4-0.9l-0.2-4l2.3-9.3l0-0.1l-2.7,1.6l-0.2-2.9l1.6-0.9L560.9,61.3l0-2.2
		l-5.2-1.4l2.2-1.3l-2-3.3l-8.4,2.3l-5.8-1.6l-1.5,2.5l1.3,0.8l-4.7,1.3l0,3.6l-283,469.6l-0.1,0.1l0,0.2l-1.5,2.5l1.3,0.8l-0.2,3.1
		L250.7,536.7z M777.1,560.8L562.4,688.2L562.1,430l246.4,112.1L777.1,560.8z M804.2,512.9L562,402.8l-0.4-292.3L804.2,512.9z
		 M536.2,110.9l0.5,292L293.6,513.5L536.2,110.9z M536.2,430.4l0.6,179.1v78.5L289.2,542.7L536.2,430.4z"/>
</g>
</svg>
